<?xml version="1.0" encoding="UTF-8" standalone="no"?>
<svg
   xmlns:dc="http://purl.org/dc/elements/1.1/"
   xmlns:cc="http://creativecommons.org/ns#"
   xmlns:rdf="http://www.w3.org/1999/02/22-rdf-syntax-ns#"
   xmlns:svg="http://www.w3.org/2000/svg"
   xmlns="http://www.w3.org/2000/svg"
   xmlns:sodipodi="http://sodipodi.sourceforge.net/DTD/sodipodi-0.dtd"
   xmlns:inkscape="http://www.inkscape.org/namespaces/inkscape"
   sodipodi:docname="bookflix.svg"
   inkscape:version="1.0 (4035a4fb49, 2020-05-01)"
   id="svg8"
   version="1.1"
   viewBox="0 0 74.832466 18.569021"
   height="18.569021mm"
   width="74.832466mm">
  <defs
     id="defs2">
    <inkscape:path-effect
       only_selected="false"
       apply_with_weight="true"
       apply_no_weight="true"
       helper_size="0"
       steps="2"
       weight="33.333333"
       lpeversion="1"
       is_visible="true"
       id="path-effect4439"
       effect="bspline" />
    <inkscape:path-effect
       only_selected="false"
       apply_with_weight="true"
       apply_no_weight="true"
       helper_size="0"
       steps="2"
       weight="33.333333"
       lpeversion="1"
       is_visible="true"
       id="path-effect918"
       effect="bspline" />
  </defs>
  <sodipodi:namedview
     fit-margin-bottom="0"
     fit-margin-right="0"
     fit-margin-left="0"
     fit-margin-top="0"
     borderlayer="false"
     inkscape:window-maximized="1"
     inkscape:window-y="-9"
     inkscape:window-x="-9"
     inkscape:window-height="1001"
     inkscape:window-width="1920"
     inkscape:snap-grids="true"
     inkscape:snap-to-guides="false"
     inkscape:snap-global="true"
     inkscape:object-paths="false"
     showgrid="false"
     inkscape:document-rotation="0"
     inkscape:current-layer="layer1"
     inkscape:document-units="mm"
     inkscape:cy="21.917686"
     inkscape:cx="-187.22576"
     inkscape:zoom="0.49497475"
     inkscape:pageshadow="2"
     inkscape:pageopacity="0.0"
     borderopacity="1.0"
     bordercolor="#666666"
     pagecolor="#ffffff"
     id="base" />
  <metadata
     id="metadata5">
    <rdf:RDF>
      <cc:Work
         rdf:about="">
        <dc:format>image/svg+xml</dc:format>
        <dc:type
           rdf:resource="http://purl.org/dc/dcmitype/StillImage" />
        <dc:title></dc:title>
      </cc:Work>
    </rdf:RDF>
  </metadata>
  <g
     transform="translate(-66.573052,-99.837158)"
     id="layer1"
     inkscape:groupmode="layer"
     inkscape:label="Capa 1">
    <path
       inkscape:export-ydpi="96"
       inkscape:export-xdpi="96"
       id="path4535"
       d="m 66.573052,109.23656 v -9.16962 h 2.665258 c 3.0663,0 3.982593,0.19605 4.85122,1.03796 0.726507,0.70416 1.064265,1.83329 1.064265,3.55787 0,1.75955 -0.259562,2.56364 -1.089191,3.37415 -0.506434,0.49476 -0.613727,0.68317 -0.425058,0.7464 0.512253,0.17167 1.482878,1.32217 1.663087,1.97128 0.102181,0.36807 0.186208,1.39789 0.186724,2.28849 0.0015,2.57818 -0.517185,3.58572 -2.274183,4.41762 -0.71371,0.33792 -1.414785,0.46862 -3.657159,0.68177 -1.525799,0.14503 -2.821608,0.2637 -2.879572,0.2637 -0.05796,0 -0.105391,-4.12633 -0.105391,-9.16962 z m 5.123481,6.23949 c 0.313463,-0.13097 0.651737,-0.39099 0.751722,-0.57781 0.09999,-0.18683 0.181793,-1.14547 0.181793,-2.13031 0,-1.75478 -0.0098,-1.80048 -0.491808,-2.28244 -0.443873,-0.44387 -0.599659,-0.49181 -1.598375,-0.49181 H 69.4333 v 2.86025 2.86025 h 0.846653 c 0.465661,0 1.10312,-0.10716 1.41658,-0.23813 z m 0.216546,-8.42381 c 0.336355,-0.39103 0.380469,-0.62439 0.380469,-2.01267 0,-2.07085 -0.177823,-2.31728 -1.744143,-2.41701 l -1.116105,-0.0711 v 2.56672 2.56671 l 1.049655,-0.0952 c 0.858368,-0.0778 1.118992,-0.17578 1.430124,-0.5375 z m 67.927411,11.22936 -1.35137,-0.0561 -1.06713,-3.21633 c -0.6638,-2.00071 -1.11486,-3.12709 -1.19342,-2.98022 -0.0695,0.12985 -0.5711,1.50403 -1.11475,3.05373 l -0.98844,2.81762 -0.673,-0.009 c -0.37015,-0.005 -0.94853,-0.0616 -1.28528,-0.12563 l -0.61228,-0.1165 1.0726,-2.86024 c 0.58992,-1.57314 1.31166,-3.54166 1.60386,-4.3745 l 0.53126,-1.51425 -1.53839,-4.31829 c -0.84612,-2.37505 -1.5384,-4.36545 -1.5384,-4.42311 0,-0.0577 0.65719,-0.083 1.46041,-0.0562 l 1.46041,0.0486 0.93344,2.81819 c 0.51339,1.55 0.97459,2.81819 1.02488,2.81819 0.0503,0 0.53067,-1.32497 1.06752,-2.94438 l 0.97608,-2.944495 h 1.32308 1.32309 l -0.47673,1.388065 c -0.26221,0.76343 -0.97224,2.80406 -1.57785,4.53473 l -1.10111,3.14666 1.57626,4.42458 c 0.86694,2.43352 1.62773,4.55708 1.69064,4.71902 0.0629,0.16194 0.0495,0.27902 -0.0298,0.26019 -0.0793,-0.0188 -0.75231,-0.0595 -1.49557,-0.0903 z m -60.149128,-0.93434 c -1.266896,-0.35953 -1.937822,-0.9891 -2.367913,-2.22195 -0.335337,-0.96125 -0.341,-11.81349 -0.0067,-12.75936 0.57671,-1.63153 2.016296,-2.523875 4.077041,-2.527195 2.222213,-0.004 3.580378,0.989375 4.100157,2.997595 0.206893,0.79935 0.259547,2.06652 0.259547,6.24616 0,5.70328 -0.07206,6.24576 -0.951688,7.16389 -0.980806,1.02374 -3.482952,1.56273 -5.110486,1.10086 z m 2.813984,-2.37578 0.472068,-0.40621 -0.06075,-5.52075 c -0.03341,-3.03642 -0.124433,-5.68824 -0.202258,-5.89294 -0.188201,-0.495 -0.66356,-0.72914 -1.480339,-0.72914 -0.528411,0 -0.747635,0.0964 -1.026822,0.45128 -0.347583,0.44188 -0.353966,0.57004 -0.306648,6.15615 l 0.04833,5.70487 0.3972,0.32147 c 0.570719,0.46191 1.569505,0.42271 2.159228,-0.0847 z m 44.860454,2.38314 c -0.0735,-0.11567 -0.16196,-4.05272 -0.19665,-8.749 l -0.0631,-8.53868 h 1.4486 1.4486 v 8.749 8.74899 h -1.25194 c -0.81816,0 -1.29823,-0.0729 -1.38551,-0.21031 z m -4.68142,-0.13484 c -1.29552,-0.0652 -2.8287,-0.12778 -3.40706,-0.13907 l -1.05156,-0.0205 v -8.49662 -8.49662 h 1.34425 1.34425 l 0.0438,7.44506 0.0438,7.44506 1.76662,0.10557 c 0.97165,0.0581 2.05055,0.11485 2.39756,0.12618 l 0.63094,0.0206 v 1.09363 c 0,1.03061 -0.0218,1.09194 -0.37856,1.06444 -0.20821,-0.016 -1.43854,-0.0825 -2.73406,-0.14772 z m -32.053711,-0.21606 c -1.243941,-0.27255 -2.028731,-0.78781 -2.528041,-1.65979 l -0.414216,-0.72337 -0.05216,-5.66502 c -0.05626,-6.11075 -0.01052,-6.55245 0.793669,-7.66259 0.737817,-1.01853 1.794475,-1.462945 3.461183,-1.455705 2.226657,0.01 3.504452,0.856705 4.055736,2.688475 0.340354,1.13091 0.346704,11.76685 0.0075,12.56293 -0.652565,1.5315 -3.083378,2.40593 -5.323671,1.91507 z m 2.397689,-2.15892 c 0.160849,-0.0824 0.336153,-0.32395 0.389568,-0.53677 0.05341,-0.21282 0.07324,-2.76593 0.04405,-5.67358 -0.03833,-3.81869 -0.111107,-5.38801 -0.262088,-5.65172 -0.325574,-0.56867 -1.230893,-0.79927 -1.953138,-0.49749 -0.456838,0.19088 -0.636558,0.39519 -0.784287,0.8916 -0.276758,0.92999 -0.161788,10.59946 0.132145,11.11373 0.360295,0.63037 1.55528,0.8043 2.433752,0.35423 z m 16.222302,-0.50337 c -0.0607,-1.40277 -0.11039,-5.18839 -0.11039,-8.41249 v -5.862 h 3.78562 3.78562 v 1.26188 1.26187 h -2.35549 -2.3555 v 2.50536 2.50536 l 1.85075,0.1209 1.85074,0.12091 v 1.07523 1.07523 h -1.85074 -1.85075 v 3.44913 3.44912 h -1.31973 -1.31973 z m -10.935295,-3.19746 c -0.06124,-3.06884 -0.111337,-6.81661 -0.111337,-8.32837 v -2.74866 h 1.430124 1.430128 v 3.73515 c 0,2.49319 0.056,3.67913 0.16846,3.56669 0.0926,-0.0926 0.91979,-1.75454 1.83809,-3.69309 l 1.66963,-3.52462 1.35866,-0.0489 c 0.74726,-0.0269 1.35865,-0.001 1.35865,0.0569 0,0.0582 -0.71927,1.5232 -1.59837,3.25557 -0.87911,1.73238 -1.59838,3.23261 -1.59838,3.33384 0,0.26774 2.39931,7.34378 2.9215,8.61609 0.24393,0.59431 0.4435,1.14323 0.4435,1.21981 0,0.0766 -0.60839,0.13924 -1.35198,0.13924 h -1.35197 l -0.31955,-0.74546 c -0.17574,-0.41 -0.75233,-1.92425 -1.28131,-3.365 -0.52897,-1.44074 -1.00712,-2.6189 -1.06254,-2.61812 -0.0554,7.6e-4 -0.35785,0.48547 -0.67207,1.07709 l -0.5713,1.07566 0.0873,2.28792 0.0873,2.28791 h -1.381604 -1.381599 z"
       style="fill:#d40000;stroke-width:0.16825" />
  </g>
</svg>
